<svg xmlns="http://www.w3.org/2000/svg" width="1536" height="1024" viewBox="0 0 1536 1024">
  <path fill="#ffffff" fill-rule="evenodd" d="M 612.00 599.50 L 574.00 599.50 L 573.50 599.00 L 573.50 573.00 L 573.00 572.50 L 568.00 577.50 L 567.00 577.50 L 565.00 579.50 L 564.00 579.50 L 562.00 581.50 L 561.00 581.50 L 560.00 582.50 L 559.00 582.50 L 557.00 584.50 L 556.00 584.50 L 555.00 585.50 L 554.00 585.50 L 553.00 586.50 L 552.00 586.50 L 549.00 588.50 L 547.00 588.50 L 546.00 589.50 L 545.00 589.50 L 542.00 591.50 L 539.00 591.50 L 536.00 593.50 L 533.00 593.50 L 532.00 594.50 L 530.00 594.50 L 529.00 595.50 L 525.00 595.50 L 524.00 596.50 L 520.00 596.50 L 519.00 597.50 L 511.00 597.50 L 510.00 598.50 L 493.00 598.50 L 492.00 597.50 L 483.00 597.50 L 482.00 596.50 L 478.00 596.50 L 477.00 595.50 L 473.00 595.50 L 472.00 594.50 L 470.00 594.50 L 469.00 593.50 L 467.00 593.50 L 466.00 592.50 L 464.00 592.50 L 463.00 591.50 L 461.00 591.50 L 460.00 590.50 L 458.00 590.50 L 457.00 589.50 L 456.00 589.50 L 455.00 588.50 L 454.00 588.50 L 453.00 587.50 L 452.00 587.50 L 451.00 586.50 L 450.00 586.50 L 449.00 585.50 L 448.00 585.50 L 447.00 584.50 L 446.00 584.50 L 445.00 583.50 L 444.00 583.50 L 442.00 581.50 L 441.00 581.50 L 440.00 580.50 L 439.00 580.50 L 436.00 577.50 L 435.00 577.50 L 433.00 575.50 L 432.00 575.50 L 427.00 570.50 L 426.00 570.50 L 416.50 561.00 L 416.50 560.00 L 411.50 555.00 L 411.50 554.00 L 408.50 551.00 L 408.50 550.00 L 406.50 548.00 L 406.50 547.00 L 405.50 546.00 L 405.50 545.00 L 403.50 543.00 L 403.50 542.00 L 402.50 541.00 L 402.50 540.00 L 401.50 539.00 L 401.50 538.00 L 400.50 537.00 L 400.50 536.00 L 399.50 535.00 L 399.50 534.00 L 398.50 533.00 L 398.50 532.00 L 396.50 529.00 L 396.50 527.00 L 395.50 526.00 L 395.50 524.00 L 394.50 523.00 L 394.50 521.00 L 393.50 520.00 L 393.50 518.00 L 392.50 517.00 L 392.50 514.00 L 391.50 513.00 L 391.50 509.00 L 390.50 508.00 L 390.50 503.00 L 389.50 502.00 L 389.50 491.00 L 388.50 490.00 L 388.50 481.00 L 389.50 480.00 L 389.50 472.00 L 390.50 471.00 L 390.50 466.00 L 391.50 465.00 L 391.50 462.00 L 392.50 461.00 L 392.50 458.00 L 393.50 457.00 L 393.50 454.00 L 394.50 453.00 L 394.50 451.00 L 396.50 448.00 L 396.50 446.00 L 397.50 445.00 L 397.50 444.00 L 399.50 441.00 L 399.50 439.00 L 401.50 437.00 L 401.50 436.00 L 402.50 435.00 L 402.50 434.00 L 403.50 433.00 L 403.50 432.00 L 405.50 430.00 L 405.50 429.00 L 406.50 428.00 L 406.50 427.00 L 408.50 425.00 L 408.50 424.00 L 411.50 421.00 L 411.50 420.00 L 420.50 411.00 L 420.50 410.00 L 421.00 409.50 L 422.00 409.50 L 429.00 402.50 L 430.00 402.50 L 433.00 399.50 L 434.00 399.50 L 436.00 397.50 L 437.00 397.50 L 439.00 395.50 L 440.00 395.50 L 442.00 393.50 L 443.00 393.50 L 444.00 392.50 L 445.00 392.50 L 446.00 391.50 L 447.00 391.50 L 448.00 390.50 L 449.00 390.50 L 450.00 389.50 L 451.00 389.50 L 454.00 387.50 L 456.00 387.50 L 459.00 385.50 L 461.00 385.50 L 462.00 384.50 L 464.00 384.50 L 465.00 383.50 L 467.00 383.50 L 468.00 382.50 L 471.00 382.50 L 472.00 381.50 L 476.00 381.50 L 477.00 380.50 L 483.00 380.50 L 484.00 379.50 L 510.00 379.50 L 511.00 380.50 L 518.00 380.50 L 519.00 381.50 L 522.00 381.50 L 523.00 382.50 L 526.00 382.50 L 527.00 383.50 L 530.00 383.50 L 531.00 384.50 L 533.00 384.50 L 534.00 385.50 L 536.00 385.50 L 537.00 386.50 L 538.00 386.50 L 575.50 349.00 L 575.50 348.00 L 562.00 334.50 L 561.00 334.50 L 552.50 326.00 L 554.00 324.50 L 555.00 324.50 L 556.00 325.50 L 630.00 325.50 L 630.50 326.00 L 630.50 401.00 L 630.00 401.50 L 629.00 401.50 L 610.00 382.50 L 609.00 382.50 L 608.00 381.50 L 596.00 393.50 L 595.00 393.50 L 594.50 394.00 L 594.50 395.00 L 564.00 425.50 L 563.00 425.50 L 558.50 430.00 L 558.50 431.00 L 552.00 437.50 L 551.00 437.50 L 547.00 441.50 L 546.00 441.50 L 544.00 439.50 L 543.00 439.50 L 538.00 434.50 L 537.00 434.50 L 535.00 432.50 L 534.00 432.50 L 532.00 430.50 L 531.00 430.50 L 530.00 429.50 L 529.00 429.50 L 528.00 428.50 L 527.00 428.50 L 524.00 426.50 L 522.00 426.50 L 519.00 424.50 L 516.00 424.50 L 515.00 423.50 L 512.00 423.50 L 511.00 422.50 L 505.00 422.50 L 504.00 421.50 L 492.00 421.50 L 491.00 422.50 L 486.00 422.50 L 485.00 423.50 L 482.00 423.50 L 481.00 424.50 L 478.00 424.50 L 477.00 425.50 L 475.00 425.50 L 474.00 426.50 L 473.00 426.50 L 472.00 427.50 L 471.00 427.50 L 470.00 428.50 L 469.00 428.50 L 468.00 429.50 L 467.00 429.50 L 466.00 430.50 L 465.00 430.50 L 462.00 433.50 L 461.00 433.50 L 457.00 437.50 L 456.00 437.50 L 449.50 444.00 L 449.50 445.00 L 446.50 448.00 L 446.50 449.00 L 444.50 451.00 L 444.50 452.00 L 442.50 454.00 L 442.50 455.00 L 441.50 456.00 L 441.50 457.00 L 439.50 460.00 L 439.50 462.00 L 438.50 463.00 L 438.50 464.00 L 437.50 465.00 L 437.50 467.00 L 436.50 468.00 L 436.50 471.00 L 435.50 472.00 L 435.50 476.00 L 434.50 477.00 L 434.50 497.00 L 435.50 498.00 L 435.50 503.00 L 436.50 504.00 L 436.50 506.00 L 437.50 507.00 L 437.50 509.00 L 438.50 510.00 L 438.50 512.00 L 439.50 513.00 L 439.50 515.00 L 440.50 516.00 L 440.50 517.00 L 441.50 518.00 L 441.50 519.00 L 442.50 520.00 L 442.50 521.00 L 443.50 522.00 L 443.50 523.00 L 445.50 525.00 L 445.50 526.00 L 447.50 528.00 L 447.50 529.00 L 461.00 542.50 L 462.00 542.50 L 464.00 544.50 L 465.00 544.50 L 467.00 546.50 L 468.00 546.50 L 469.00 547.50 L 470.00 547.50 L 471.00 548.50 L 472.00 548.50 L 475.00 550.50 L 477.00 550.50 L 480.00 552.50 L 483.00 552.50 L 484.00 553.50 L 486.00 553.50 L 487.00 554.50 L 492.00 554.50 L 493.00 555.50 L 511.00 555.50 L 512.00 554.50 L 517.00 554.50 L 518.00 553.50 L 521.00 553.50 L 522.00 552.50 L 524.00 552.50 L 525.00 551.50 L 527.00 551.50 L 528.00 550.50 L 530.00 550.50 L 531.00 549.50 L 532.00 549.50 L 533.00 548.50 L 534.00 548.50 L 535.00 547.50 L 536.00 547.50 L 538.00 545.50 L 539.00 545.50 L 540.00 544.50 L 541.00 544.50 L 544.00 541.50 L 545.00 541.50 L 550.00 536.50 L 551.00 536.50 L 552.50 535.00 L 552.50 534.00 L 557.50 529.00 L 557.50 528.00 L 559.50 526.00 L 559.50 525.00 L 561.50 523.00 L 561.50 522.00 L 563.50 520.00 L 563.50 519.00 L 565.50 516.00 L 565.50 514.00 L 566.50 513.00 L 566.00 512.50 L 495.00 512.50 L 494.50 512.00 L 494.50 472.00 L 495.00 471.50 L 612.00 471.50 L 612.50 472.00 L 612.50 599.00 L 612.00 599.50 Z M 731.00 499.50 L 714.00 499.50 L 713.00 498.50 L 709.00 498.50 L 708.00 497.50 L 705.00 497.50 L 704.00 496.50 L 701.00 496.50 L 700.00 495.50 L 699.00 495.50 L 698.00 494.50 L 697.00 494.50 L 696.00 493.50 L 695.00 493.50 L 694.00 492.50 L 693.00 492.50 L 692.00 491.50 L 691.00 491.50 L 690.00 490.50 L 689.00 490.50 L 687.00 488.50 L 686.00 488.50 L 681.00 483.50 L 680.00 483.50 L 678.50 482.00 L 678.50 481.00 L 674.50 477.00 L 674.50 476.00 L 672.50 474.00 L 672.50 473.00 L 670.50 471.00 L 670.50 470.00 L 669.50 469.00 L 669.50 468.00 L 667.50 465.00 L 667.50 463.00 L 665.50 460.00 L 665.50 457.00 L 664.50 456.00 L 664.50 452.00 L 663.50 451.00 L 663.50 431.00 L 664.50 430.00 L 664.50 426.00 L 665.50 425.00 L 665.50 423.00 L 666.50 422.00 L 666.50 420.00 L 668.50 417.00 L 668.50 415.00 L 669.50 414.00 L 669.50 413.00 L 671.50 411.00 L 671.50 410.00 L 672.50 409.00 L 672.50 408.00 L 675.50 405.00 L 675.50 404.00 L 685.00 394.50 L 686.00 394.50 L 689.00 391.50 L 690.00 391.50 L 691.00 390.50 L 692.00 390.50 L 693.00 389.50 L 694.00 389.50 L 695.00 388.50 L 696.00 388.50 L 699.00 386.50 L 701.00 386.50 L 702.00 385.50 L 704.00 385.50 L 705.00 384.50 L 708.00 384.50 L 709.00 383.50 L 715.00 383.50 L 716.00 382.50 L 731.00 382.50 L 732.00 383.50 L 738.00 383.50 L 739.00 384.50 L 742.00 384.50 L 743.00 385.50 L 745.00 385.50 L 748.00 387.50 L 750.00 387.50 L 751.00 388.50 L 752.00 388.50 L 753.00 389.50 L 754.00 389.50 L 756.00 391.50 L 757.00 391.50 L 758.00 392.50 L 759.00 392.50 L 763.00 396.50 L 764.00 396.50 L 768.50 401.00 L 768.50 402.00 L 768.00 402.50 L 767.00 402.50 L 753.00 416.50 L 752.00 416.50 L 750.00 414.50 L 749.00 414.50 L 746.00 411.50 L 745.00 411.50 L 743.00 409.50 L 742.00 409.50 L 741.00 408.50 L 740.00 408.50 L 737.00 406.50 L 735.00 406.50 L 734.00 405.50 L 731.00 405.50 L 730.00 404.50 L 718.00 404.50 L 717.00 405.50 L 714.00 405.50 L 713.00 406.50 L 711.00 406.50 L 710.00 407.50 L 709.00 407.50 L 708.00 408.50 L 707.00 408.50 L 706.00 409.50 L 705.00 409.50 L 704.00 410.50 L 703.00 410.50 L 696.50 417.00 L 696.50 418.00 L 694.50 420.00 L 694.50 421.00 L 693.50 422.00 L 693.50 423.00 L 691.50 426.00 L 691.50 428.00 L 690.50 429.00 L 690.50 432.00 L 689.50 433.00 L 689.50 449.00 L 690.50 450.00 L 690.50 453.00 L 691.50 454.00 L 691.50 456.00 L 692.50 457.00 L 692.50 458.00 L 693.50 459.00 L 693.50 460.00 L 694.50 461.00 L 694.50 462.00 L 695.50 463.00 L 695.50 464.00 L 703.00 471.50 L 704.00 471.50 L 706.00 473.50 L 707.00 473.50 L 708.00 474.50 L 709.00 474.50 L 712.00 476.50 L 715.00 476.50 L 716.00 477.50 L 721.00 477.50 L 722.00 478.50 L 726.00 478.50 L 727.00 477.50 L 733.00 477.50 L 734.00 476.50 L 737.00 476.50 L 740.00 474.50 L 742.00 474.50 L 744.00 472.50 L 745.00 472.50 L 747.50 470.00 L 747.50 457.00 L 747.00 456.50 L 725.00 456.50 L 724.50 456.00 L 724.50 436.00 L 725.00 435.50 L 770.00 435.50 L 771.50 437.00 L 771.50 459.00 L 770.50 460.00 L 770.50 472.00 L 771.50 473.00 L 771.50 474.00 L 770.50 475.00 L 771.50 476.00 L 771.50 478.00 L 770.50 479.00 L 770.50 480.00 L 765.00 485.50 L 764.00 485.50 L 761.00 488.50 L 760.00 488.50 L 758.00 490.50 L 757.00 490.50 L 756.00 491.50 L 755.00 491.50 L 754.00 492.50 L 753.00 492.50 L 752.00 493.50 L 751.00 493.50 L 748.00 495.50 L 746.00 495.50 L 745.00 496.50 L 742.00 496.50 L 741.00 497.50 L 738.00 497.50 L 737.00 498.50 L 732.00 498.50 L 731.00 499.50 Z M 868.00 497.50 L 792.00 497.50 L 790.50 496.00 L 790.50 386.00 L 792.00 384.50 L 865.00 384.50 L 866.50 386.00 L 866.50 405.00 L 865.00 406.50 L 864.00 405.50 L 863.00 405.50 L 862.00 406.50 L 816.00 406.50 L 815.50 407.00 L 815.50 428.00 L 816.00 428.50 L 861.00 428.50 L 861.50 429.00 L 861.50 449.00 L 861.00 449.50 L 816.00 449.50 L 815.50 450.00 L 815.50 475.00 L 816.00 475.50 L 868.00 475.50 L 868.50 476.00 L 868.50 497.00 L 868.00 497.50 Z M 985.00 497.50 L 958.00 497.50 L 957.50 497.00 L 957.50 496.00 L 956.50 495.00 L 956.50 494.00 L 954.50 492.00 L 954.50 491.00 L 952.50 489.00 L 952.50 488.00 L 950.50 486.00 L 950.50 485.00 L 948.50 483.00 L 948.50 482.00 L 946.50 480.00 L 946.50 479.00 L 944.50 477.00 L 944.50 476.00 L 943.50 475.00 L 943.50 474.00 L 941.50 472.00 L 941.50 471.00 L 939.50 469.00 L 939.50 468.00 L 937.50 466.00 L 937.50 465.00 L 935.50 463.00 L 935.50 462.00 L 933.50 460.00 L 933.50 459.00 L 932.00 457.50 L 931.50 458.00 L 931.50 459.00 L 929.50 461.00 L 929.50 462.00 L 927.50 464.00 L 927.50 465.00 L 926.50 466.00 L 926.50 467.00 L 924.50 469.00 L 924.50 470.00 L 922.50 472.00 L 922.50 473.00 L 919.50 476.00 L 919.50 477.00 L 918.50 478.00 L 918.50 479.00 L 916.50 481.00 L 916.50 482.00 L 915.50 483.00 L 915.50 484.00 L 912.50 487.00 L 912.50 488.00 L 910.50 490.00 L 910.50 491.00 L 908.50 493.00 L 908.50 494.00 L 907.50 495.00 L 907.50 496.00 L 906.00 497.50 L 879.00 497.50 L 878.50 497.00 L 878.50 496.00 L 879.50 495.00 L 879.50 494.00 L 881.50 492.00 L 881.50 491.00 L 883.50 489.00 L 883.50 488.00 L 885.50 486.00 L 885.50 485.00 L 887.50 483.00 L 887.50 482.00 L 889.50 480.00 L 889.50 479.00 L 891.50 477.00 L 891.50 476.00 L 893.50 474.00 L 893.50 473.00 L 895.50 471.00 L 895.50 470.00 L 897.50 468.00 L 897.50 467.00 L 900.50 464.00 L 900.50 463.00 L 902.50 461.00 L 902.50 460.00 L 904.50 458.00 L 904.50 457.00 L 906.50 455.00 L 906.50 454.00 L 908.50 452.00 L 908.50 451.00 L 910.50 449.00 L 910.50 448.00 L 913.50 445.00 L 913.50 444.00 L 915.50 442.00 L 915.50 441.00 L 917.50 439.00 L 916.50 438.00 L 916.50 437.00 L 914.50 435.00 L 914.50 434.00 L 912.50 432.00 L 912.50 431.00 L 910.50 429.00 L 910.50 428.00 L 908.50 426.00 L 908.50 425.00 L 905.50 422.00 L 905.50 421.00 L 903.50 419.00 L 903.50 418.00 L 901.50 416.00 L 901.50 415.00 L 900.50 414.00 L 900.50 413.00 L 898.50 411.00 L 898.50 410.00 L 895.50 407.00 L 895.50 406.00 L 893.50 404.00 L 893.50 403.00 L 891.50 401.00 L 891.50 400.00 L 889.50 398.00 L 889.50 397.00 L 887.50 395.00 L 887.50 394.00 L 885.50 392.00 L 885.50 391.00 L 883.50 389.00 L 883.50 388.00 L 881.50 386.00 L 881.50 385.00 L 882.00 384.50 L 909.00 384.50 L 909.50 385.00 L 909.50 386.00 L 911.50 388.00 L 911.50 389.00 L 912.50 390.00 L 912.50 391.00 L 915.50 394.00 L 915.50 395.00 L 917.50 397.00 L 917.50 398.00 L 918.50 399.00 L 918.50 400.00 L 920.50 402.00 L 920.50 403.00 L 922.50 405.00 L 922.50 406.00 L 924.50 408.00 L 924.50 409.00 L 926.50 411.00 L 926.50 412.00 L 928.50 414.00 L 928.50 415.00 L 929.50 416.00 L 929.50 417.00 L 931.50 419.00 L 931.50 420.00 L 932.00 420.50 L 933.00 420.50 L 933.50 420.00 L 933.50 419.00 L 935.50 417.00 L 935.50 416.00 L 937.50 414.00 L 937.50 413.00 L 939.50 411.00 L 939.50 410.00 L 940.50 409.00 L 940.50 408.00 L 942.50 406.00 L 942.50 405.00 L 944.50 403.00 L 944.50 402.00 L 946.50 400.00 L 946.50 399.00 L 948.50 397.00 L 948.50 396.00 L 950.50 394.00 L 950.50 393.00 L 952.50 391.00 L 952.50 390.00 L 954.50 388.00 L 954.50 387.00 L 957.00 384.50 L 982.00 384.50 L 983.50 386.00 L 981.50 388.00 L 981.50 389.00 L 979.50 391.00 L 979.50 392.00 L 977.50 394.00 L 977.50 395.00 L 975.50 397.00 L 975.50 398.00 L 973.50 400.00 L 973.50 401.00 L 971.50 403.00 L 971.50 404.00 L 968.50 407.00 L 968.50 408.00 L 966.50 410.00 L 966.50 411.00 L 964.50 413.00 L 964.50 414.00 L 962.50 416.00 L 962.50 417.00 L 960.50 419.00 L 960.50 420.00 L 958.50 422.00 L 958.50 423.00 L 955.50 426.00 L 955.50 427.00 L 953.50 429.00 L 953.50 430.00 L 951.50 432.00 L 951.50 433.00 L 949.50 435.00 L 949.50 436.00 L 947.50 438.00 L 947.50 439.00 L 948.50 440.00 L 948.50 441.00 L 950.50 443.00 L 950.50 444.00 L 951.50 445.00 L 951.50 446.00 L 954.50 449.00 L 954.50 450.00 L 956.50 452.00 L 956.50 453.00 L 958.50 455.00 L 958.50 456.00 L 960.50 458.00 L 960.50 459.00 L 962.50 461.00 L 962.50 462.00 L 964.50 464.00 L 964.50 465.00 L 966.50 467.00 L 966.50 468.00 L 968.50 470.00 L 968.50 471.00 L 970.50 473.00 L 970.50 474.00 L 972.50 476.00 L 972.50 477.00 L 975.50 480.00 L 975.50 481.00 L 977.50 483.00 L 977.50 484.00 L 979.50 486.00 L 979.50 487.00 L 982.50 490.00 L 982.50 491.00 L 983.50 492.00 L 983.50 493.00 L 985.50 495.00 L 985.50 497.00 L 985.00 497.50 Z M 708.00 600.50 L 702.00 600.50 L 701.00 599.50 L 694.00 599.50 L 693.00 598.50 L 690.00 598.50 L 689.00 597.50 L 688.00 597.50 L 687.00 596.50 L 686.00 596.50 L 685.00 595.50 L 684.00 595.50 L 682.00 593.50 L 681.00 593.50 L 670.50 583.00 L 670.50 582.00 L 669.50 581.00 L 669.50 580.00 L 667.50 577.00 L 667.50 575.00 L 666.50 574.00 L 666.50 572.00 L 665.50 571.00 L 665.50 553.00 L 666.50 552.00 L 666.50 550.00 L 668.50 547.00 L 668.50 545.00 L 670.50 543.00 L 670.50 542.00 L 672.50 540.00 L 672.50 539.00 L 680.00 531.50 L 681.00 531.50 L 683.00 529.50 L 684.00 529.50 L 687.00 527.50 L 689.00 527.50 L 690.00 526.50 L 692.00 526.50 L 693.00 525.50 L 697.00 525.50 L 698.00 524.50 L 710.00 524.50 L 711.00 525.50 L 716.00 525.50 L 717.00 526.50 L 719.00 526.50 L 720.00 527.50 L 721.00 527.50 L 722.00 528.50 L 723.00 528.50 L 724.00 529.50 L 725.00 529.50 L 726.00 530.50 L 727.00 530.50 L 732.00 535.50 L 733.00 535.50 L 734.50 537.00 L 734.50 538.00 L 737.50 541.00 L 737.50 542.00 L 738.50 543.00 L 738.50 544.00 L 740.50 546.00 L 740.50 548.00 L 741.50 549.00 L 741.50 551.00 L 742.50 552.00 L 742.50 557.00 L 743.50 558.00 L 743.50 567.00 L 742.50 568.00 L 742.50 572.00 L 741.50 573.00 L 741.50 576.00 L 740.50 577.00 L 740.50 578.00 L 739.50 579.00 L 739.50 580.00 L 738.50 581.00 L 738.50 582.00 L 735.50 585.00 L 735.50 586.00 L 729.00 592.50 L 728.00 592.50 L 726.00 594.50 L 725.00 594.50 L 723.00 596.50 L 721.00 596.50 L 720.00 597.50 L 718.00 597.50 L 717.00 598.50 L 714.00 598.50 L 713.00 599.50 L 709.00 599.50 L 708.00 600.50 Z M 968.00 599.50 L 949.00 599.50 L 948.00 598.50 L 946.00 598.50 L 945.00 597.50 L 943.00 597.50 L 942.00 596.50 L 941.00 596.50 L 940.00 595.50 L 939.00 595.50 L 938.00 594.50 L 937.00 594.50 L 934.00 591.50 L 933.00 591.50 L 928.50 587.00 L 928.50 586.00 L 925.50 583.00 L 925.50 582.00 L 924.50 581.00 L 924.50 580.00 L 923.50 579.00 L 923.50 578.00 L 921.50 575.00 L 921.50 573.00 L 920.50 572.00 L 920.50 567.00 L 919.50 566.00 L 919.50 559.00 L 920.50 558.00 L 920.50 552.00 L 921.50 551.00 L 921.50 549.00 L 922.50 548.00 L 922.50 547.00 L 923.50 546.00 L 923.50 545.00 L 924.50 544.00 L 924.50 543.00 L 926.50 541.00 L 926.50 540.00 L 935.00 531.50 L 936.00 531.50 L 938.00 529.50 L 939.00 529.50 L 940.00 528.50 L 941.00 528.50 L 944.00 526.50 L 947.00 526.50 L 948.00 525.50 L 951.00 525.50 L 952.00 524.50 L 965.00 524.50 L 966.00 525.50 L 970.00 525.50 L 971.00 526.50 L 973.00 526.50 L 974.00 527.50 L 976.00 527.50 L 977.00 528.50 L 978.00 528.50 L 979.00 529.50 L 980.00 529.50 L 982.00 531.50 L 983.00 531.50 L 990.50 539.00 L 990.50 540.00 L 992.50 542.00 L 992.50 543.00 L 993.50 544.00 L 993.50 545.00 L 994.50 546.00 L 994.50 547.00 L 996.50 550.00 L 996.50 553.00 L 997.50 554.00 L 997.50 571.00 L 996.50 572.00 L 996.50 574.00 L 995.50 575.00 L 995.50 577.00 L 994.50 578.00 L 994.50 579.00 L 993.50 580.00 L 993.50 581.00 L 991.50 583.00 L 991.50 584.00 L 982.00 593.50 L 981.00 593.50 L 979.00 595.50 L 978.00 595.50 L 977.00 596.50 L 975.00 596.50 L 972.00 598.50 L 969.00 598.50 L 968.00 599.50 Z M 1126.00 599.50 L 1110.00 599.50 L 1109.00 598.50 L 1105.00 598.50 L 1104.00 597.50 L 1102.00 597.50 L 1101.00 596.50 L 1100.00 596.50 L 1099.00 595.50 L 1098.00 595.50 L 1097.00 594.50 L 1096.00 594.50 L 1095.00 593.50 L 1094.00 593.50 L 1092.00 591.50 L 1091.00 591.50 L 1090.00 590.50 L 1089.00 590.50 L 1087.50 589.00 L 1087.50 588.00 L 1088.50 587.00 L 1088.50 586.00 L 1090.50 584.00 L 1090.50 583.00 L 1093.50 580.00 L 1093.50 579.00 L 1095.00 577.50 L 1096.00 577.50 L 1097.00 578.50 L 1098.00 578.50 L 1099.00 579.50 L 1100.00 579.50 L 1102.00 581.50 L 1103.00 581.50 L 1104.00 582.50 L 1106.00 582.50 L 1109.00 584.50 L 1112.00 584.50 L 1113.00 585.50 L 1123.00 585.50 L 1124.00 584.50 L 1125.00 584.50 L 1126.00 583.50 L 1127.00 583.50 L 1129.50 581.00 L 1129.50 576.00 L 1128.50 575.00 L 1128.50 574.00 L 1128.00 573.50 L 1127.00 573.50 L 1126.00 572.50 L 1125.00 572.50 L 1122.00 570.50 L 1120.00 570.50 L 1119.00 569.50 L 1116.00 569.50 L 1115.00 568.50 L 1112.00 568.50 L 1111.00 567.50 L 1109.00 567.50 L 1108.00 566.50 L 1106.00 566.50 L 1105.00 565.50 L 1103.00 565.50 L 1102.00 564.50 L 1101.00 564.50 L 1100.00 563.50 L 1099.00 563.50 L 1092.50 557.00 L 1092.50 556.00 L 1091.50 555.00 L 1091.50 553.00 L 1090.50 552.00 L 1090.50 541.00 L 1091.50 540.00 L 1091.50 538.00 L 1092.50 537.00 L 1092.50 536.00 L 1093.50 535.00 L 1093.50 534.00 L 1098.00 529.50 L 1099.00 529.50 L 1101.00 527.50 L 1102.00 527.50 L 1103.00 526.50 L 1105.00 526.50 L 1106.00 525.50 L 1110.00 525.50 L 1111.00 524.50 L 1124.00 524.50 L 1125.00 525.50 L 1129.00 525.50 L 1130.00 526.50 L 1132.00 526.50 L 1133.00 527.50 L 1135.00 527.50 L 1136.00 528.50 L 1137.00 528.50 L 1138.00 529.50 L 1139.00 529.50 L 1140.00 530.50 L 1141.00 530.50 L 1143.00 532.50 L 1144.00 532.50 L 1144.50 533.00 L 1144.50 534.00 L 1143.50 535.00 L 1143.50 536.00 L 1141.50 538.00 L 1141.50 539.00 L 1139.50 541.00 L 1139.50 542.00 L 1138.50 543.00 L 1138.50 544.00 L 1138.00 544.50 L 1136.00 544.50 L 1135.00 543.50 L 1134.00 543.50 L 1133.00 542.50 L 1132.00 542.50 L 1129.00 540.50 L 1127.00 540.50 L 1126.00 539.50 L 1122.00 539.50 L 1121.00 538.50 L 1114.00 538.50 L 1113.00 539.50 L 1110.00 539.50 L 1106.50 543.00 L 1106.50 547.00 L 1107.50 548.00 L 1107.50 549.00 L 1109.00 550.50 L 1110.00 550.50 L 1113.00 552.50 L 1115.00 552.50 L 1116.00 553.50 L 1119.00 553.50 L 1120.00 554.50 L 1123.00 554.50 L 1124.00 555.50 L 1126.00 555.50 L 1127.00 556.50 L 1129.00 556.50 L 1130.00 557.50 L 1132.00 557.50 L 1133.00 558.50 L 1134.00 558.50 L 1135.00 559.50 L 1136.00 559.50 L 1137.00 560.50 L 1138.00 560.50 L 1144.50 567.00 L 1144.50 568.00 L 1145.50 569.00 L 1145.50 571.00 L 1146.50 572.00 L 1146.50 583.00 L 1145.50 584.00 L 1145.50 586.00 L 1144.50 587.00 L 1144.50 588.00 L 1137.00 595.50 L 1136.00 595.50 L 1133.00 597.50 L 1131.00 597.50 L 1130.00 598.50 L 1127.00 598.50 L 1126.00 599.50 Z M 771.00 598.50 L 756.00 598.50 L 755.50 598.00 L 755.50 526.00 L 756.00 525.50 L 792.00 525.50 L 793.00 526.50 L 797.00 526.50 L 798.00 527.50 L 800.00 527.50 L 801.00 528.50 L 803.00 528.50 L 805.00 530.50 L 806.00 530.50 L 811.50 536.00 L 811.50 537.00 L 813.50 539.00 L 813.50 540.00 L 814.50 541.00 L 814.50 544.00 L 815.50 545.00 L 815.50 558.00 L 814.50 559.00 L 814.50 561.00 L 813.50 562.00 L 813.50 564.00 L 811.50 566.00 L 811.50 567.00 L 806.00 572.50 L 805.00 572.50 L 804.00 573.50 L 803.00 573.50 L 800.00 575.50 L 798.00 575.50 L 797.00 576.50 L 793.00 576.50 L 792.00 577.50 L 772.00 577.50 L 771.50 578.00 L 771.50 598.00 L 771.00 598.50 Z M 858.00 598.50 L 843.00 598.50 L 842.50 598.00 L 842.50 540.00 L 842.00 539.50 L 833.00 539.50 L 832.00 540.50 L 826.00 540.50 L 825.00 539.50 L 821.00 539.50 L 820.50 539.00 L 820.50 526.00 L 821.00 525.50 L 880.00 525.50 L 881.50 527.00 L 881.50 539.00 L 881.00 539.50 L 876.00 539.50 L 875.00 540.50 L 860.00 540.50 L 859.50 541.00 L 859.50 583.00 L 858.50 584.00 L 858.50 598.00 L 858.00 598.50 Z M 907.00 598.50 L 892.00 598.50 L 891.50 598.00 L 891.50 526.00 L 892.00 525.50 L 906.00 525.50 L 907.50 527.00 L 907.50 598.00 L 907.00 598.50 Z M 1075.00 598.50 L 1062.00 598.50 L 1059.50 596.00 L 1059.50 595.00 L 1054.50 590.00 L 1054.50 589.00 L 1051.50 586.00 L 1051.50 585.00 L 1047.50 581.00 L 1047.50 580.00 L 1044.50 577.00 L 1044.50 576.00 L 1040.50 572.00 L 1040.50 571.00 L 1037.50 568.00 L 1037.50 567.00 L 1033.50 563.00 L 1033.50 562.00 L 1030.50 559.00 L 1030.50 558.00 L 1026.50 554.00 L 1026.50 553.00 L 1026.00 552.50 L 1025.50 553.00 L 1025.50 598.00 L 1025.00 598.50 L 1010.00 598.50 L 1009.50 598.00 L 1009.50 527.00 L 1011.00 525.50 L 1024.00 525.50 L 1027.50 529.00 L 1027.50 530.00 L 1030.50 533.00 L 1030.50 534.00 L 1033.50 537.00 L 1033.50 538.00 L 1036.50 541.00 L 1036.50 542.00 L 1040.50 546.00 L 1040.50 547.00 L 1043.50 550.00 L 1043.50 551.00 L 1047.50 555.00 L 1047.50 556.00 L 1051.50 560.00 L 1051.50 561.00 L 1054.50 564.00 L 1054.50 565.00 L 1057.50 568.00 L 1057.50 569.00 L 1060.00 571.50 L 1060.50 571.00 L 1060.50 526.00 L 1061.00 525.50 L 1075.00 525.50 L 1076.50 527.00 L 1076.50 597.00 L 1075.00 598.50 Z M 709.50 585.00 L 710.00 584.50 L 712.00 584.50 L 713.00 583.50 L 715.00 583.50 L 717.00 581.50 L 718.00 581.50 L 721.50 578.00 L 721.50 577.00 L 724.50 574.00 L 724.50 573.00 L 725.50 572.00 L 725.50 570.00 L 726.50 569.00 L 726.50 564.00 L 727.50 563.00 L 727.50 560.00 L 726.50 559.00 L 726.50 555.00 L 725.50 554.00 L 725.50 553.00 L 724.50 552.00 L 724.50 551.00 L 723.50 550.00 L 723.50 549.00 L 717.00 542.50 L 716.00 542.50 L 715.00 541.50 L 714.00 541.50 L 711.00 539.50 L 706.00 539.50 L 705.00 538.50 L 703.00 538.50 L 702.00 539.50 L 698.00 539.50 L 697.00 540.50 L 695.00 540.50 L 694.00 541.50 L 693.00 541.50 L 691.00 543.50 L 690.00 543.50 L 686.50 547.00 L 686.50 548.00 L 684.50 550.00 L 684.50 551.00 L 682.50 554.00 L 682.50 558.00 L 681.50 559.00 L 681.50 564.00 L 682.50 565.00 L 682.50 570.00 L 683.50 571.00 L 683.50 572.00 L 684.50 573.00 L 684.50 574.00 L 685.50 575.00 L 685.50 576.00 L 692.00 582.50 L 693.00 582.50 L 696.00 584.50 L 699.00 584.50 L 700.00 585.50 L 709.00 585.50 L 709.50 585.00 Z M 963.50 585.00 L 964.00 584.50 L 967.00 584.50 L 968.00 583.50 L 969.00 583.50 L 970.00 582.50 L 971.00 582.50 L 978.50 575.00 L 978.50 574.00 L 980.50 571.00 L 980.50 568.00 L 981.50 567.00 L 981.50 557.00 L 980.50 556.00 L 980.50 553.00 L 979.50 552.00 L 979.50 551.00 L 977.50 549.00 L 977.50 548.00 L 973.00 543.50 L 972.00 543.50 L 970.00 541.50 L 969.00 541.50 L 968.00 540.50 L 966.00 540.50 L 965.00 539.50 L 960.00 539.50 L 959.00 538.50 L 958.00 539.50 L 953.00 539.50 L 952.00 540.50 L 950.00 540.50 L 949.00 541.50 L 948.00 541.50 L 947.00 542.50 L 946.00 542.50 L 939.50 549.00 L 939.50 550.00 L 937.50 553.00 L 937.50 556.00 L 936.50 557.00 L 936.50 567.00 L 937.50 568.00 L 937.50 571.00 L 938.50 572.00 L 938.50 573.00 L 939.50 574.00 L 939.50 575.00 L 942.50 578.00 L 942.50 579.00 L 944.00 580.50 L 945.00 580.50 L 947.00 582.50 L 948.00 582.50 L 951.00 584.50 L 953.00 584.50 L 954.00 585.50 L 963.00 585.50 L 963.50 585.00 Z M 790.50 563.00 L 791.00 562.50 L 793.00 562.50 L 794.00 561.50 L 795.00 561.50 L 797.50 559.00 L 797.50 558.00 L 798.50 557.00 L 798.50 546.00 L 797.50 545.00 L 797.50 544.00 L 795.00 541.50 L 794.00 541.50 L 793.00 540.50 L 790.00 540.50 L 789.00 539.50 L 772.00 539.50 L 771.50 540.00 L 771.50 563.00 L 772.00 563.50 L 790.00 563.50 L 790.50 563.00 Z"/>
</svg>
